<mxfile host="app.diagrams.net" modified="2024-06-14T08:55:38.419Z" agent="Mozilla/5.0 (Windows NT 10.0; Win64; x64) AppleWebKit/537.36 (KHTML, like Gecko) Chrome/125.0.0.0 Safari/537.36" version="22.1.21" etag="GSsr_5WtBAi7yehaTl1I" type="github">
  <diagram name="Page-1" id="aldsTEeo4MqDtkfdrxq_">
    <mxGraphModel>
      <root>
        <mxCell id="0" />
        <mxCell id="1" parent="0" />
      </root>
    </mxGraphModel>
  </diagram>
</mxfile>
